<svg xmlns="http://www.w3.org/2000/svg" viewBox="0 0 256 256"><g id="Camada_2" data-name="Camada 2"><g id="Camada_1-2" data-name="Camada 1"><rect width="256" height="256" rx="30.48" style="fill:#062314"/><path d="M229.7,76.65,175,21.94a11,11,0,0,0-15.63,0L104.66,76.65a11.05,11.05,0,0,0,0,15.63l15.63,15.63v23.44h23.45L159.37,147A11.08,11.08,0,0,0,175,147l54.7-54.7A11.08,11.08,0,0,0,229.7,76.65Zm-86,39.07-7.82-7.81,7.82-7.82,7.81,7.82Zm38.37-22.19L175,93.6c-5.67,0-9.77.63-15.63,6.49l-7.82-7.81,2-2a22.19,22.19,0,0,1,15.63-6.48l9.77-.08a10.8,10.8,0,0,0,7.81-3.21,11.05,11.05,0,0,0-15.63-15.63l-7.81-7.81a22.1,22.1,0,0,1,31.26,31.26A17.6,17.6,0,0,1,182.11,93.53Z" style="fill:#fff"/><path d="M88.67,199l-14-13.87.17-.16a97,97,0,0,0,20.5-36.09h16.19v-11H72.81V126.78H61.75v11.05H23.07v11H84.8a86.89,86.89,0,0,1-17.52,29.62,86.52,86.52,0,0,1-12.76-18.52H43.46a97.09,97.09,0,0,0,16.47,25.2L31.8,212.87l7.85,7.85,27.63-27.63,17.19,17.19Zm31.11-28h-11L83.86,237.3h11l6.19-16.58h26.25l6.24,16.58h11.06ZM105.3,209.67l9-23.93,9,23.93Z" style="fill:#fff"/></g></g></svg>